<mxfile host="app.diagrams.net" modified="2023-06-14T09:30:42.067Z" agent="Mozilla/5.0 (Windows NT 10.0; Win64; x64) AppleWebKit/537.36 (KHTML, like Gecko) Chrome/113.0.0.0 Safari/537.36" etag="hlzs0g9T3LA29ZvtC9U1" version="21.3.5" type="github">
  <diagram name="Page-1" id="7Pt5JdpYoL4AQ6x-ODm_">
    <mxGraphModel dx="1434" dy="700" grid="1" gridSize="10" guides="1" tooltips="1" connect="1" arrows="1" fold="1" page="1" pageScale="1" pageWidth="850" pageHeight="1100" math="0" shadow="0">
      <root>
        <mxCell id="0" />
        <mxCell id="1" parent="0" />
        <mxCell id="eS861rJks0ixXEZPdbiH-6" value="" style="rounded=0;whiteSpace=wrap;html=1;" vertex="1" parent="1">
          <mxGeometry x="690" y="325" width="580" height="240" as="geometry" />
        </mxCell>
        <mxCell id="xkbz179fJwxEYXa0ZDRS-1" value="&lt;b&gt;前端&lt;/b&gt;" style="rounded=0;whiteSpace=wrap;html=1;fillColor=#fff2cc;strokeColor=#d6b656;" parent="1" vertex="1">
          <mxGeometry x="70" y="90" width="20" height="80" as="geometry" />
        </mxCell>
        <mxCell id="eS861rJks0ixXEZPdbiH-8" style="edgeStyle=orthogonalEdgeStyle;rounded=0;orthogonalLoop=1;jettySize=auto;html=1;" edge="1" parent="1" source="xkbz179fJwxEYXa0ZDRS-3" target="eS861rJks0ixXEZPdbiH-2">
          <mxGeometry relative="1" as="geometry" />
        </mxCell>
        <mxCell id="eS861rJks0ixXEZPdbiH-12" style="edgeStyle=orthogonalEdgeStyle;rounded=0;orthogonalLoop=1;jettySize=auto;html=1;" edge="1" parent="1">
          <mxGeometry relative="1" as="geometry">
            <mxPoint x="390" y="279" as="sourcePoint" />
            <mxPoint x="505" y="359" as="targetPoint" />
            <Array as="points">
              <mxPoint x="390" y="324" />
              <mxPoint x="505" y="324" />
            </Array>
          </mxGeometry>
        </mxCell>
        <mxCell id="xkbz179fJwxEYXa0ZDRS-3" value="华为云APIG" style="rounded=0;whiteSpace=wrap;html=1;" parent="1" vertex="1">
          <mxGeometry x="330" y="235" width="120" height="50" as="geometry" />
        </mxCell>
        <mxCell id="xkbz179fJwxEYXa0ZDRS-4" value="网&lt;br&gt;关&amp;nbsp; &amp;nbsp;(外）" style="rounded=0;whiteSpace=wrap;html=1;fillColor=#dae8fc;strokeColor=#6c8ebf;" parent="1" vertex="1">
          <mxGeometry x="70" y="220" width="20" height="90" as="geometry" />
        </mxCell>
        <mxCell id="xkbz179fJwxEYXa0ZDRS-5" value="聚合层" style="rounded=0;whiteSpace=wrap;html=1;fillColor=#d5e8d4;strokeColor=#82b366;" parent="1" vertex="1">
          <mxGeometry x="70" y="350" width="20" height="80" as="geometry" />
        </mxCell>
        <mxCell id="xkbz179fJwxEYXa0ZDRS-6" value="中台层" style="rounded=0;whiteSpace=wrap;html=1;fillColor=#e1d5e7;strokeColor=#9673a6;" parent="1" vertex="1">
          <mxGeometry x="650" y="440" width="20" height="80" as="geometry" />
        </mxCell>
        <mxCell id="eS861rJks0ixXEZPdbiH-20" style="edgeStyle=orthogonalEdgeStyle;rounded=0;orthogonalLoop=1;jettySize=auto;html=1;" edge="1" parent="1" source="eS861rJks0ixXEZPdbiH-2" target="eS861rJks0ixXEZPdbiH-19">
          <mxGeometry relative="1" as="geometry" />
        </mxCell>
        <mxCell id="eS861rJks0ixXEZPdbiH-2" value="mime(小程序聚合服务)" style="rounded=0;whiteSpace=wrap;html=1;" vertex="1" parent="1">
          <mxGeometry x="240" y="365" width="150" height="50" as="geometry" />
        </mxCell>
        <mxCell id="eS861rJks0ixXEZPdbiH-7" style="edgeStyle=orthogonalEdgeStyle;rounded=0;orthogonalLoop=1;jettySize=auto;html=1;" edge="1" parent="1" source="eS861rJks0ixXEZPdbiH-3" target="xkbz179fJwxEYXa0ZDRS-3">
          <mxGeometry relative="1" as="geometry" />
        </mxCell>
        <mxCell id="eS861rJks0ixXEZPdbiH-3" value="小程序" style="rounded=0;whiteSpace=wrap;html=1;" vertex="1" parent="1">
          <mxGeometry x="330" y="100" width="120" height="50" as="geometry" />
        </mxCell>
        <mxCell id="eS861rJks0ixXEZPdbiH-4" value="volvo-report-vehicle（车辆报表服务）" style="rounded=0;whiteSpace=wrap;html=1;" vertex="1" parent="1">
          <mxGeometry x="760" y="325" width="160" height="50" as="geometry" />
        </mxCell>
        <mxCell id="eS861rJks0ixXEZPdbiH-5" value="基础设施" style="rounded=0;whiteSpace=wrap;html=1;fillColor=#e1d5e7;strokeColor=#9673a6;" vertex="1" parent="1">
          <mxGeometry x="70" y="940" width="20" height="80" as="geometry" />
        </mxCell>
        <mxCell id="eS861rJks0ixXEZPdbiH-10" value="volvo-report-member（会员报表服务）" style="rounded=0;whiteSpace=wrap;html=1;" vertex="1" parent="1">
          <mxGeometry x="940" y="325" width="160" height="50" as="geometry" />
        </mxCell>
        <mxCell id="eS861rJks0ixXEZPdbiH-14" style="edgeStyle=orthogonalEdgeStyle;rounded=0;orthogonalLoop=1;jettySize=auto;html=1;" edge="1" parent="1" source="eS861rJks0ixXEZPdbiH-11" target="eS861rJks0ixXEZPdbiH-13">
          <mxGeometry relative="1" as="geometry">
            <Array as="points">
              <mxPoint x="505" y="980" />
            </Array>
          </mxGeometry>
        </mxCell>
        <mxCell id="eS861rJks0ixXEZPdbiH-21" style="edgeStyle=orthogonalEdgeStyle;rounded=0;orthogonalLoop=1;jettySize=auto;html=1;entryX=0.5;entryY=0;entryDx=0;entryDy=0;" edge="1" parent="1" source="eS861rJks0ixXEZPdbiH-11" target="eS861rJks0ixXEZPdbiH-19">
          <mxGeometry relative="1" as="geometry" />
        </mxCell>
        <mxCell id="eS861rJks0ixXEZPdbiH-11" value="mms(会员服务)" style="rounded=0;whiteSpace=wrap;html=1;" vertex="1" parent="1">
          <mxGeometry x="430" y="365" width="150" height="50" as="geometry" />
        </mxCell>
        <mxCell id="eS861rJks0ixXEZPdbiH-13" value="rds-mysql-newbie-prod-2c-shanghai" style="rounded=0;whiteSpace=wrap;html=1;" vertex="1" parent="1">
          <mxGeometry x="170" y="950" width="120" height="60" as="geometry" />
        </mxCell>
        <mxCell id="eS861rJks0ixXEZPdbiH-15" value="mid-end-member-center" style="text;whiteSpace=wrap;html=1;" vertex="1" parent="1">
          <mxGeometry x="1130" y="335" width="160" height="40" as="geometry" />
        </mxCell>
        <mxCell id="eS861rJks0ixXEZPdbiH-16" value="mid-end-member-center（会员报表服务）" style="rounded=0;whiteSpace=wrap;html=1;" vertex="1" parent="1">
          <mxGeometry x="760" y="390" width="160" height="50" as="geometry" />
        </mxCell>
        <mxCell id="eS861rJks0ixXEZPdbiH-22" style="edgeStyle=orthogonalEdgeStyle;rounded=0;orthogonalLoop=1;jettySize=auto;html=1;entryX=0.462;entryY=0.008;entryDx=0;entryDy=0;entryPerimeter=0;" edge="1" parent="1" source="eS861rJks0ixXEZPdbiH-19" target="eS861rJks0ixXEZPdbiH-6">
          <mxGeometry relative="1" as="geometry">
            <Array as="points">
              <mxPoint x="620" y="505" />
              <mxPoint x="620" y="327" />
            </Array>
          </mxGeometry>
        </mxCell>
        <mxCell id="eS861rJks0ixXEZPdbiH-19" value="华为云APIG" style="rounded=0;whiteSpace=wrap;html=1;" vertex="1" parent="1">
          <mxGeometry x="350" y="480" width="120" height="50" as="geometry" />
        </mxCell>
      </root>
    </mxGraphModel>
  </diagram>
</mxfile>
